<?xml version="1.0" encoding="UTF-8" standalone="no"?>
<!-- Created with Inkscape (http://www.inkscape.org/) -->
<svg
   xmlns:dc="http://purl.org/dc/elements/1.1/"
   xmlns:cc="http://web.resource.org/cc/"
   xmlns:rdf="http://www.w3.org/1999/02/22-rdf-syntax-ns#"
   xmlns:svg="http://www.w3.org/2000/svg"
   xmlns="http://www.w3.org/2000/svg"
   xmlns:sodipodi="http://inkscape.sourceforge.net/DTD/sodipodi-0.dtd"
   xmlns:inkscape="http://www.inkscape.org/namespaces/inkscape"
   width="300"
   height="250"
   id="svg2851"
   sodipodi:version="0.32"
   inkscape:version="0.43"
   sodipodi:docbase="/home/mx/Desktop"
   sodipodi:docname="comic-bubbles-0014.svg"
   version="1.0">
  <defs
     id="defs2853" />
  <sodipodi:namedview
     id="base"
     pagecolor="#ffffff"
     bordercolor="#666666"
     borderopacity="1.0"
     inkscape:pageopacity="0.0"
     inkscape:pageshadow="2"
     inkscape:zoom="0.7"
     inkscape:cx="394.59126"
     inkscape:cy="43.320394"
     inkscape:document-units="px"
     inkscape:current-layer="layer1"
     inkscape:window-width="872"
     inkscape:window-height="583"
     inkscape:window-x="7"
     inkscape:window-y="46" />
  <metadata
     id="metadata2856">
    <rdf:RDF>
      <cc:Work
         rdf:about="">
        <dc:format>image/svg+xml</dc:format>
        <dc:type
           rdf:resource="http://purl.org/dc/dcmitype/StillImage" />
      </cc:Work>
    </rdf:RDF>
  </metadata>
  <g
     inkscape:label="Layer 1"
     inkscape:groupmode="layer"
     id="layer1">
    <path
       style="opacity:1;fill:#cccccc;fill-opacity:1;fill-rule:nonzero;stroke:none;stroke-width:1.25;stroke-linejoin:round;stroke-miterlimit:4;stroke-dasharray:none;stroke-dashoffset:0;stroke-opacity:1"
       d="M 27.157491,29.818822 C 20.466191,30.240252 15.188741,35.767612 15.188741,42.568822 L 15.188741,65.568822 C 15.188741,72.646502 20.892311,78.350072 27.969991,78.350072 L 42.001241,78.350072 L 52.938741,94.381321 L 49.188741,78.350072 L 93.876245,78.350072 C 100.95393,78.350072 106.6575,72.646502 106.6575,65.568822 L 106.6575,42.568822 C 106.6575,35.491142 100.95393,29.818822 93.876245,29.818822 L 27.969991,29.818822 C 27.693521,29.818822 27.429491,29.801692 27.157491,29.818822 z "
       id="rect1345"
       inkscape:export-filename="/home/mx/Desktop/comica-bubbles-0014.png"
       inkscape:export-xdpi="190"
       inkscape:export-ydpi="190" />
    <path
       style="opacity:1;fill:#cccccf;fill-opacity:0.94117647;fill-rule:nonzero;stroke:none;stroke-width:1.25;stroke-linejoin:round;stroke-miterlimit:4;stroke-dasharray:none;stroke-dashoffset:0;stroke-opacity:1"
       d="M 133.17082,29.869762 C 122.36883,30.119482 113.70208,38.214162 113.70207,48.119762 C 113.70207,58.182592 122.66191,66.338522 133.70207,66.338512 C 134.4352,66.338512 135.14555,66.314952 135.85832,66.244762 L 142.98332,76.682262 L 140.32707,65.307262 C 148.11864,62.815812 153.70209,56.069212 153.70207,48.119762 C 153.70207,38.056932 144.74217,29.869762 133.70207,29.869762 C 133.52957,29.869762 133.34228,29.865802 133.17082,29.869762 z "
       id="path1347"
       inkscape:export-filename="/home/mx/Desktop/comica-bubbles-0014.png"
       inkscape:export-xdpi="190"
       inkscape:export-ydpi="190" />
    <path
       style="opacity:1;fill:#cccccc;fill-opacity:1;fill-rule:nonzero;stroke:none;stroke-width:1.25;stroke-linejoin:round;stroke-miterlimit:4;stroke-dasharray:none;stroke-dashoffset:0;stroke-opacity:1"
       d="M 175.74664,19.354682 C 167.95859,19.600922 161.71538,25.997662 161.71539,33.823432 C 161.71539,41.805092 168.21138,48.292182 176.21539,48.292182 C 176.58016,48.292182 176.95111,48.256122 177.30914,48.229682 C 177.2445,48.826042 177.21539,49.430452 177.21539,50.042182 C 177.21539,60.105012 186.17523,68.292182 197.21539,68.292182 C 198.63853,68.292182 200.03236,68.143912 201.37164,67.885932 L 201.40289,67.885932 L 208.49664,78.292182 L 205.74664,66.542182 C 212.52254,63.621892 217.21541,57.323402 217.21539,50.042182 C 217.21539,39.979352 208.2555,31.823432 197.21539,31.823432 C 196.91351,31.823432 196.60777,31.811352 196.30914,31.823432 C 194.34913,31.902742 192.45796,32.233672 190.68414,32.792182 C 190.15869,25.285952 183.87546,19.354682 176.21539,19.354682 C 176.05906,19.354682 175.90178,19.349772 175.74664,19.354682 z "
       id="path1354"
       inkscape:export-filename="/home/mx/Desktop/comica-bubbles-0014.png"
       inkscape:export-xdpi="190"
       inkscape:export-ydpi="190" />
    <g
       id="g2606"
       inkscape:export-filename="/home/mx/Desktop/comica-bubbles-0014.png"
       inkscape:export-xdpi="190"
       inkscape:export-ydpi="190"
       transform="translate(-289.7847,-262.0076)">
      <path
         id="path1371"
         d="M 424.19559,291.01883 C 413.3936,291.26855 404.72685,299.36323 404.72684,309.26883 C 404.72684,319.33166 413.68668,327.48759 424.72684,327.48758 C 425.45997,327.48758 426.17032,327.46402 426.88309,327.39383 L 434.00809,337.83133 L 431.35184,326.45633 C 439.14341,323.96488 444.72686,317.21828 444.72684,309.26883 C 444.72684,299.206 435.76694,291.01883 424.72684,291.01883 C 424.55434,291.01883 424.36705,291.01487 424.19559,291.01883 z "
         style="opacity:1;fill:#ffffff;fill-opacity:1;fill-rule:nonzero;stroke:#333333;stroke-width:1;stroke-linejoin:round;stroke-miterlimit:4;stroke-dasharray:none;stroke-dashoffset:0;stroke-opacity:1" />
      <text
         sodipodi:linespacing="100%"
         id="text2272"
         y="303.20737"
         x="410.80682"
         style="font-size:8px;font-style:normal;font-variant:normal;font-weight:normal;font-stretch:normal;text-align:start;line-height:100%;writing-mode:lr-tb;text-anchor:start;fill:#000000;fill-opacity:1;stroke:none;stroke-width:1px;stroke-linecap:butt;stroke-linejoin:miter;stroke-opacity:1;font-family:Mufferaw"
         xml:space="preserve"><tspan
           y="303.20737"
           x="410.80682"
           id="tspan2278"
           sodipodi:role="line">This is</tspan><tspan
           y="311.20737"
           x="410.80682"
           id="tspan2280"
           sodipodi:role="line">a round</tspan><tspan
           y="319.20737"
           x="410.80682"
           id="tspan2282"
           sodipodi:role="line">bubble.</tspan></text>
    </g>
    <g
       id="g2613"
       inkscape:export-filename="/home/mx/Desktop/comica-bubbles-0014.png"
       inkscape:export-xdpi="190"
       inkscape:export-ydpi="190"
       transform="translate(-289.7847,-262.0076)">
      <path
         id="path1369"
         d="M 317.96173,290.44309 C 311.27043,290.86452 305.99298,296.39188 305.99298,303.19309 L 305.99298,326.19309 C 305.99298,333.27077 311.69655,338.97434 318.77423,338.97434 L 332.80548,338.97434 L 343.74298,355.00559 L 339.99298,338.97434 L 384.68048,338.97434 C 391.75816,338.97434 397.46173,333.27077 397.46173,326.19309 L 397.46173,303.19309 C 397.46173,296.11541 391.75816,290.44309 384.68048,290.44309 L 318.77423,290.44309 C 318.49776,290.44309 318.23373,290.42596 317.96173,290.44309 z "
         style="opacity:1;fill:#ffffff;fill-opacity:1;fill-rule:nonzero;stroke:#333333;stroke-width:1;stroke-linejoin:round;stroke-miterlimit:4;stroke-dasharray:none;stroke-dashoffset:0;stroke-opacity:1" />
      <text
         transform="scale(0.945457,1.05769)"
         sodipodi:linespacing="130%"
         id="text2284"
         y="285.50269"
         x="329.99185"
         style="font-size:5.35832644px;font-style:normal;font-variant:normal;font-weight:normal;font-stretch:normal;text-align:start;line-height:129.99999523%;writing-mode:lr-tb;text-anchor:start;fill:#000000;fill-opacity:1;stroke:none;stroke-width:1px;stroke-linecap:butt;stroke-linejoin:miter;stroke-opacity:1;font-family:Anime Ace"
         xml:space="preserve"><tspan
           y="285.50269"
           x="329.99185"
           id="tspan2298"
           sodipodi:role="line">This is a rectangular</tspan><tspan
           y="292.46851"
           x="329.99185"
           id="tspan2300"
           sodipodi:role="line">bubble.  The corners</tspan><tspan
           y="299.43433"
           x="329.99185"
           id="tspan2302"
           sodipodi:role="line">look a bit too rounded.</tspan><tspan
           y="306.40016"
           x="329.99185"
           id="tspan2304"
           sodipodi:role="line">But that's ok, as we'll</tspan><tspan
           y="313.36598"
           x="329.99185"
           id="tspan2306"
           sodipodi:role="line">offer several styles.</tspan></text>
    </g>
    <g
       id="g2597"
       transform="translate(-289.298,-263.4676)"
       inkscape:export-filename="/home/mx/Desktop/comica-bubbles-0014.png"
       inkscape:export-xdpi="190"
       inkscape:export-ydpi="190">
      <path
         id="path1373"
         d="M 463.11334,282.42465 C 455.32529,282.67089 449.08208,289.06763 449.08209,296.8934 C 449.08209,304.87506 455.57808,311.36215 463.58209,311.36215 C 463.94686,311.36215 464.31781,311.32609 464.67584,311.29965 C 464.6112,311.89601 464.58209,312.50042 464.58209,313.11215 C 464.58209,323.17498 473.54193,331.36215 484.58209,331.36215 C 486.00523,331.36215 487.39906,331.21388 488.73834,330.9559 L 488.76959,330.9559 L 495.86334,341.36215 L 493.11334,329.61215 C 499.88924,326.69186 504.58211,320.39337 504.58209,313.11215 C 504.58209,303.04932 495.6222,294.8934 484.58209,294.8934 C 484.28021,294.8934 483.97447,294.88132 483.67584,294.8934 C 481.71583,294.97271 479.82466,295.30364 478.05084,295.86215 C 477.52539,288.35592 471.24216,282.42465 463.58209,282.42465 C 463.42576,282.42465 463.26848,282.41974 463.11334,282.42465 z "
         style="opacity:1;fill:#ffffff;fill-opacity:1;fill-rule:nonzero;stroke:#333333;stroke-width:1;stroke-linejoin:round;stroke-miterlimit:4;stroke-dasharray:none;stroke-dashoffset:0;stroke-opacity:1" />
      <text
         sodipodi:linespacing="100%"
         id="text2308"
         y="295.0022"
         x="454.14612"
         style="font-size:8px;font-style:normal;font-variant:normal;font-weight:normal;font-stretch:normal;text-align:start;line-height:100%;writing-mode:lr-tb;text-anchor:start;fill:#000000;fill-opacity:1;stroke:none;stroke-width:1px;stroke-linecap:butt;stroke-linejoin:miter;stroke-opacity:1;font-family:Mufferaw"
         xml:space="preserve"><tspan
           y="295.0022"
           x="454.14612"
           id="tspan2314"
           sodipodi:role="line">And</tspan><tspan
           id="tspan2321"
           y="303.0022"
           x="454.14612"
           sodipodi:role="line">This is ...</tspan></text>
      <text
         sodipodi:linespacing="100%"
         id="text2323"
         y="313.36218"
         x="472.41223"
         style="font-size:8px;font-style:normal;font-variant:normal;font-weight:normal;font-stretch:normal;text-align:start;line-height:100%;writing-mode:lr-tb;text-anchor:start;fill:#000000;fill-opacity:1;stroke:none;stroke-width:1px;stroke-linecap:butt;stroke-linejoin:miter;stroke-opacity:1;font-family:Mufferaw"
         xml:space="preserve"><tspan
           y="313.36218"
           x="472.41223"
           id="tspan2329"
           sodipodi:role="line">A multi-</tspan><tspan
           id="tspan2336"
           y="321.36218"
           x="472.41223"
           sodipodi:role="line">Bubble.</tspan></text>
    </g>
    <g
       id="g2421"
       transform="translate(-476.6956,-77.8517)"
       inkscape:export-filename="/home/mx/Desktop/comica-bubbles-0014.png"
       inkscape:export-xdpi="190"
       inkscape:export-ydpi="190"
       style="fill:#cccccc;fill-opacity:1">
      <path
         id="path2395"
         d="M 656.16503,209.97344 C 653.39122,210.12656 650.95796,211.31186 649.31006,213.07963 C 648.6193,212.6066 647.74322,212.32407 646.78215,212.32407 C 645.5376,212.32407 644.42025,212.79495 643.68488,213.54136 C 642.75804,213.14801 641.71509,212.91172 640.6104,212.91172 C 637.39289,212.91172 634.69035,214.80001 633.91484,217.34013 C 633.39475,217.13334 632.82043,217.02532 632.20679,217.02532 C 630.03747,217.02532 628.26683,218.4538 628.19857,220.25743 C 625.64094,221.12614 623.82596,223.26457 623.82596,225.75621 C 623.82596,226.60706 624.03836,227.39667 624.41809,228.12782 C 622.44621,228.33802 620.91089,229.75605 620.91089,231.46488 C 620.91089,232.95648 622.08227,234.21759 623.68932,234.65501 C 622.3944,236.08398 621.63966,237.90043 621.63966,239.85997 C 621.63966,244.49406 625.96945,248.25506 631.29583,248.25506 C 632.13608,248.25506 632.95538,248.15807 633.73265,247.98221 C 634.71879,250.21988 637.25847,251.80198 640.22324,251.80199 C 641.30704,251.80199 642.33851,251.59383 643.25218,251.21433 C 643.93394,252.25328 645.26794,252.95631 646.78215,252.95631 C 647.62914,252.95631 648.41209,252.72379 649.05955,252.34767 C 650.30412,253.91977 652.41006,254.97113 654.79859,254.97113 C 656.67957,254.97113 658.37852,254.31149 659.62668,253.27112 C 660.30357,253.70868 661.16582,253.96372 662.08628,253.96372 C 664.28152,253.96372 666.06675,252.48133 666.0945,250.64766 C 667.06846,251.09428 668.19163,251.34025 669.37395,251.34025 C 672.24019,251.34025 674.6992,249.85124 675.75067,247.73037 C 676.16735,247.85339 676.62763,247.91926 677.09433,247.91926 C 679.30687,247.91926 681.10257,246.41486 681.10256,244.56122 C 681.10256,244.00224 680.91308,243.47192 680.6243,243.00813 C 683.94636,242.57444 686.5,240.12993 686.5,237.17354 C 686.5,235.66986 685.83113,234.29225 684.7464,233.24884 C 685.84984,231.88398 686.5,230.2369 686.5,228.44265 C 686.5,224.2792 683.00952,220.81209 678.438,220.15249 C 678.46185,220.00444 678.48355,219.86525 678.48355,219.71175 C 678.48355,217.85811 676.68787,216.35371 674.47533,216.35371 C 673.95676,216.35371 673.45003,216.43417 672.99502,216.58458 C 672.04083,214.29484 669.46738,212.65987 666.45888,212.65987 C 665.66768,212.65987 664.9126,212.76576 664.20425,212.97469 C 662.43376,211.13365 659.77548,209.97344 656.80271,209.97344 C 656.59465,209.97344 656.36983,209.96214 656.16503,209.97344 z "
         style="fill:#cccccc;fill-opacity:1;fill-rule:nonzero;stroke:none;stroke-width:1;stroke-linejoin:round;stroke-miterlimit:4;stroke-dasharray:none;stroke-dashoffset:0;stroke-opacity:1" />
      <path
         transform="matrix(0.7255,0,0,0.573323,159.8124,100.4249)"
         d="M 677.55641 273.36218 A 5.2782154 4 0 1 1  666.99998,273.36218 A 5.2782154 4 0 1 1  677.55641 273.36218 z"
         sodipodi:ry="4"
         sodipodi:rx="5.2782154"
         sodipodi:cy="273.36218"
         sodipodi:cx="672.2782"
         id="path2397"
         style="fill:#cccccc;fill-opacity:1;fill-rule:nonzero;stroke:none;stroke-width:1.55053508;stroke-linejoin:round;stroke-miterlimit:4;stroke-dasharray:none;stroke-dashoffset:0;stroke-opacity:1"
         sodipodi:type="arc" />
      <path
         transform="matrix(0.428753,0,0,0.334996,348.1901,173.947)"
         d="M 677.55641 273.36218 A 5.2782154 4 0 1 1  666.99998,273.36218 A 5.2782154 4 0 1 1  677.55641 273.36218 z"
         sodipodi:ry="4"
         sodipodi:rx="5.2782154"
         sodipodi:cy="273.36218"
         sodipodi:cx="672.2782"
         id="path2399"
         style="fill:#cccccc;fill-opacity:1;fill-rule:nonzero;stroke:none;stroke-width:2.63861847;stroke-linejoin:round;stroke-miterlimit:4;stroke-dasharray:none;stroke-dashoffset:0;stroke-opacity:1"
         sodipodi:type="arc" />
      <path
         transform="matrix(0.488838,0,0,0.411305,313.555,149.6768)"
         d="M 677.55641 273.36218 A 5.2782154 4 0 1 1  666.99998,273.36218 A 5.2782154 4 0 1 1  677.55641 273.36218 z"
         sodipodi:ry="4"
         sodipodi:rx="5.2782154"
         sodipodi:cy="273.36218"
         sodipodi:cx="672.2782"
         id="path2401"
         style="fill:#cccccc;fill-opacity:1;fill-rule:nonzero;stroke:none;stroke-width:2.23015738;stroke-linejoin:round;stroke-miterlimit:4;stroke-dasharray:none;stroke-dashoffset:0;stroke-opacity:1"
         sodipodi:type="arc" />
    </g>
    <path
       style="opacity:1;fill:#cccccc;fill-opacity:1;fill-rule:nonzero;stroke:none;stroke-width:1;stroke-linejoin:round;stroke-miterlimit:4;stroke-dasharray:none;stroke-dashoffset:0;stroke-opacity:1"
       d="M 244.21078,10.854682 C 234.45259,11.462792 226.74203,17.752262 226.74203,25.354682 C 226.74203,33.358682 235.25403,39.854682 245.74203,39.854682 C 246.91647,39.854682 248.06383,39.760592 249.17953,39.604682 L 250.39828,43.167182 C 239.80663,46.258972 232.24203,54.375362 232.24203,63.854682 C 232.24203,72.725492 238.86357,80.375312 248.39828,83.854681 L 247.17953,87.417181 C 243.31693,86.408191 239.13108,85.854681 234.74203,85.854681 C 215.69803,85.854681 200.24203,96.265771 200.24203,109.10468 C 200.24203,121.9436 215.69803,132.35469 234.74203,132.35468 C 237.47365,132.35468 240.13057,132.13452 242.67953,131.72968 L 251.74203,146.35468 L 249.24203,130.19843 C 261.04405,126.5048 269.24203,118.45052 269.24203,109.10468 C 269.24203,100.61143 262.4901,93.164581 252.39828,89.104681 L 253.71078,85.292181 C 255.72132,85.660951 257.81031,85.854681 259.96078,85.854681 C 275.25301,85.854681 287.6483,75.998682 287.64828,63.854682 C 287.64828,51.710682 275.25302,41.854682 259.96078,41.854682 C 258.33644,41.854682 256.72743,41.953852 255.17953,42.167182 L 253.92953,38.448432 C 260.32696,36.114172 264.74203,31.124112 264.74203,25.354682 C 264.74203,17.350682 256.23003,10.854682 245.74203,10.854682 C 245.37331,10.854682 245.01183,10.838842 244.64828,10.854682 C 244.57033,10.858082 244.50723,10.850562 244.42953,10.854682 C 244.35244,10.858762 244.28762,10.849892 244.21078,10.854682 z "
       id="path2562"
       inkscape:export-filename="/home/mx/Desktop/comica-bubbles-0014.png"
       inkscape:export-xdpi="190"
       inkscape:export-ydpi="190" />
    <g
       id="g2586"
       transform="translate(-458.2356,-147.1785)"
       inkscape:export-filename="/home/mx/Desktop/comica-bubbles-0014.png"
       inkscape:export-xdpi="190"
       inkscape:export-ydpi="190">
      <g
         transform="translate(-9.91089,-1.829176)"
         id="g2415">
        <path
           style="fill:#ffffff;fill-opacity:1;fill-rule:nonzero;stroke:#333333;stroke-width:1;stroke-linejoin:round;stroke-miterlimit:4;stroke-dasharray:none;stroke-dashoffset:0;stroke-opacity:1"
           d="M 645.89474,280.97344 C 643.12093,281.12656 640.68767,282.31186 639.03977,284.07963 C 638.34901,283.6066 637.47293,283.32407 636.51186,283.32407 C 635.26731,283.32407 634.14996,283.79495 633.41459,284.54136 C 632.48775,284.14801 631.4448,283.91172 630.34011,283.91172 C 627.1226,283.91172 624.42006,285.80001 623.64455,288.34013 C 623.12446,288.13334 622.55014,288.02532 621.9365,288.02532 C 619.76718,288.02532 617.99654,289.4538 617.92828,291.25743 C 615.37065,292.12614 613.55567,294.26457 613.55567,296.75621 C 613.55567,297.60706 613.76807,298.39667 614.1478,299.12782 C 612.17592,299.33802 610.6406,300.75605 610.6406,302.46488 C 610.6406,303.95648 611.81198,305.21759 613.41903,305.65501 C 612.12411,307.08398 611.36937,308.90043 611.36937,310.85997 C 611.36937,315.49406 615.69916,319.25506 621.02554,319.25506 C 621.86579,319.25506 622.68509,319.15807 623.46236,318.98221 C 624.4485,321.21988 626.98818,322.80198 629.95295,322.80199 C 631.03675,322.80199 632.06822,322.59383 632.98189,322.21433 C 633.66365,323.25328 634.99765,323.95631 636.51186,323.95631 C 637.35885,323.95631 638.1418,323.72379 638.78926,323.34767 C 640.03383,324.91977 642.13977,325.97113 644.5283,325.97113 C 646.40928,325.97113 648.10823,325.31149 649.35639,324.27112 C 650.03328,324.70868 650.89553,324.96372 651.81599,324.96372 C 654.01123,324.96372 655.79646,323.48133 655.82421,321.64766 C 656.79817,322.09428 657.92134,322.34025 659.10366,322.34025 C 661.9699,322.34025 664.42891,320.85124 665.48038,318.73037 C 665.89706,318.85339 666.35734,318.91926 666.82404,318.91926 C 669.03658,318.91926 670.83228,317.41486 670.83227,315.56122 C 670.83227,315.00224 670.64279,314.47192 670.35401,314.00813 C 673.67607,313.57444 676.22971,311.12993 676.22971,308.17354 C 676.22971,306.66986 675.56084,305.29225 674.47611,304.24884 C 675.57955,302.88398 676.22971,301.2369 676.22971,299.44265 C 676.22971,295.2792 672.73923,291.81209 668.16771,291.15249 C 668.19156,291.00444 668.21326,290.86525 668.21326,290.71175 C 668.21326,288.85811 666.41758,287.35371 664.20504,287.35371 C 663.68647,287.35371 663.17974,287.43417 662.72473,287.58458 C 661.77054,285.29484 659.19709,283.65987 656.18859,283.65987 C 655.39739,283.65987 654.64231,283.76576 653.93396,283.97469 C 652.16347,282.13365 649.50519,280.97344 646.53242,280.97344 C 646.32436,280.97344 646.09954,280.96214 645.89474,280.97344 z "
           id="path2407" />
        <path
           sodipodi:type="arc"
           style="fill:#ffffff;fill-opacity:1;fill-rule:nonzero;stroke:#333333;stroke-width:1.55053508;stroke-linejoin:round;stroke-miterlimit:4;stroke-dasharray:none;stroke-dashoffset:0;stroke-opacity:1"
           id="path2409"
           sodipodi:cx="672.2782"
           sodipodi:cy="273.36218"
           sodipodi:rx="5.2782154"
           sodipodi:ry="4"
           d="M 677.55641 273.36218 A 5.2782154 4 0 1 1  666.99998,273.36218 A 5.2782154 4 0 1 1  677.55641 273.36218 z"
           transform="matrix(0.7255,0,0,0.573323,149.5421,171.4249)" />
        <path
           sodipodi:type="arc"
           style="fill:#ffffff;fill-opacity:1;fill-rule:nonzero;stroke:#333333;stroke-width:2.63861847;stroke-linejoin:round;stroke-miterlimit:4;stroke-dasharray:none;stroke-dashoffset:0;stroke-opacity:1"
           id="path2411"
           sodipodi:cx="672.2782"
           sodipodi:cy="273.36218"
           sodipodi:rx="5.2782154"
           sodipodi:ry="4"
           d="M 677.55641 273.36218 A 5.2782154 4 0 1 1  666.99998,273.36218 A 5.2782154 4 0 1 1  677.55641 273.36218 z"
           transform="matrix(0.428753,0,0,0.334996,337.9198,244.947)" />
        <path
           sodipodi:type="arc"
           style="fill:#ffffff;fill-opacity:1;fill-rule:nonzero;stroke:#333333;stroke-width:2.23015738;stroke-linejoin:round;stroke-miterlimit:4;stroke-dasharray:none;stroke-dashoffset:0;stroke-opacity:1"
           id="path2413"
           sodipodi:cx="672.2782"
           sodipodi:cy="273.36218"
           sodipodi:rx="5.2782154"
           sodipodi:ry="4"
           d="M 677.55641 273.36218 A 5.2782154 4 0 1 1  666.99998,273.36218 A 5.2782154 4 0 1 1  677.55641 273.36218 z"
           transform="matrix(0.488838,0,0,0.411305,303.2847,220.6768)" />
      </g>
      <text
         sodipodi:linespacing="100%"
         id="text2427"
         y="295.07288"
         x="607.78546"
         style="font-size:8px;font-style:normal;font-variant:normal;font-weight:normal;font-stretch:normal;text-align:start;line-height:100%;writing-mode:lr-tb;text-anchor:start;fill:#000000;fill-opacity:1;stroke:none;stroke-width:1px;stroke-linecap:butt;stroke-linejoin:miter;stroke-opacity:1;font-family:Mufferaw"
         xml:space="preserve"><tspan
           id="tspan2431"
           y="295.07288"
           x="607.78546"
           sodipodi:role="line">   A thought-</tspan><tspan
           id="tspan2437"
           y="303.07288"
           x="607.78546"
           sodipodi:role="line">bubble, useful</tspan><tspan
           id="tspan2441"
           y="311.07288"
           x="607.78546"
           sodipodi:role="line">  for thinking.</tspan></text>
    </g>
    <path
       style="fill:#cccccc;fill-opacity:1;fill-rule:nonzero;stroke:none;stroke-width:1;stroke-linejoin:round;stroke-miterlimit:4;stroke-dashoffset:0;stroke-opacity:1"
       d="M 268.65191,208.14693 L 257.44263,203.2012 L 259.55206,213.22035 L 250.5703,205.89559 L 250.19633,214.58129 L 245.08415,207.43083 L 238.2154,230.85473 L 237.69287,206.59351 L 231.2875,215.90506 L 231.38457,205.16651 L 223.07762,210.42877 L 229.10792,200.42846 L 218.34898,205.39361 L 224.06404,197.07035 L 213.83246,196.33447 L 223.94523,190.09583 L 213.21539,187.92314 L 224.06682,184.51007 L 215.13348,179.14553 L 225.00589,179.45234 L 217.85899,173.69904 L 229.70412,177.44769 L 227.6465,165.76949 L 235.9406,173.26491 L 236.31132,164.34721 L 242.0626,173.21806 L 244.2223,164.0915 L 248.81802,172.56699 L 255.22016,165.70892 L 255.12314,174.05934 L 263.48508,169.75815 L 258.03884,177.53496 L 271.30504,176.51771 L 263.13452,181.91948 L 272.73025,183.85245 L 265.71198,189.06467 L 273.93455,192.6604 L 262.44084,194.41843 L 271.42604,198.42127 L 262.19267,199.5375 L 268.65191,208.14693 z "
       id="path2463"
       sodipodi:nodetypes="ccccccccccccccccccccccccccccccccccccccccc"
       inkscape:export-filename="/home/mx/Desktop/comica-bubbles-0014.png"
       inkscape:export-xdpi="190"
       inkscape:export-ydpi="190" />
    <g
       id="g2580"
       transform="translate(-459.2847,-112.2707)"
       inkscape:export-filename="/home/mx/Desktop/comica-bubbles-0014.png"
       inkscape:export-xdpi="190"
       inkscape:export-ydpi="190">
      <path
         sodipodi:nodetypes="ccccccccccccccccccccccccccccccccccccccccc"
         id="path2466"
         d="M 726.43652,319.4176 L 715.22724,314.47187 L 717.33668,324.49102 L 708.35491,317.16626 L 707.98095,325.85196 L 702.86877,318.7015 L 696.00001,342.1254 L 695.47749,317.86418 L 689.07211,327.17574 L 689.16919,316.43718 L 680.86224,321.69944 L 686.89253,311.69913 L 676.13359,316.66429 L 681.84865,308.34102 L 671.61707,307.60514 L 681.72984,301.3665 L 671,299.19381 L 681.85143,295.78075 L 672.91809,290.4162 L 682.79051,290.72301 L 675.64361,284.96971 L 687.48874,288.71836 L 685.43112,277.04016 L 693.72521,284.53558 L 694.09594,275.61789 L 699.84722,284.48873 L 702.00691,275.36218 L 706.60264,283.83767 L 713.00477,276.97959 L 712.90775,285.33001 L 721.2697,281.02883 L 715.82345,288.80563 L 729.08966,287.78839 L 720.91914,293.19015 L 730.51486,295.12312 L 723.49659,300.33535 L 731.71916,303.93108 L 720.22545,305.6891 L 729.21065,309.69194 L 719.97728,310.80817 L 726.43652,319.4176 z "
         style="fill:#ffffff;fill-opacity:1;fill-rule:nonzero;stroke:#333333;stroke-width:1;stroke-linejoin:round;stroke-miterlimit:4;stroke-dashoffset:0;stroke-opacity:1" />
      <text
         sodipodi:linespacing="100%"
         id="text2478"
         y="298.36218"
         x="686.784"
         style="font-size:8px;font-style:normal;font-variant:normal;font-weight:normal;font-stretch:normal;text-align:start;line-height:100%;writing-mode:lr-tb;text-anchor:start;fill:#000000;fill-opacity:1;stroke:none;stroke-width:1px;stroke-linecap:butt;stroke-linejoin:miter;stroke-opacity:1;font-family:Mufferaw"
         xml:space="preserve"><tspan
           id="tspan2491"
           y="298.36218"
           x="686.784"
           sodipodi:role="line">   SHIT!</tspan><tspan
           id="tspan2495"
           y="306.36218"
           x="686.784"
           sodipodi:role="line">(bubble)</tspan></text>
    </g>
    <g
       id="g2564"
       transform="translate(-308.081,-260.7356)"
       inkscape:export-filename="/home/mx/Desktop/comica-bubbles-0014.png"
       inkscape:export-xdpi="190"
       inkscape:export-ydpi="190">
      <path
         id="path2497"
         d="M 550.76511,272.09018 C 541.00692,272.69829 533.29636,278.98776 533.29636,286.59018 C 533.29636,294.59418 541.80836,301.09018 552.29636,301.09018 C 553.4708,301.09018 554.61816,300.99609 555.73386,300.84018 L 556.95261,304.40268 C 546.36096,307.49447 538.79636,315.61086 538.79636,325.09018 C 538.79636,333.96099 545.4179,341.61081 554.95261,345.09018 L 553.73386,348.65268 C 549.87126,347.64369 545.68541,347.09018 541.29636,347.09018 C 522.25236,347.09018 506.79636,357.50127 506.79636,370.34018 C 506.79636,383.1791 522.25236,393.59019 541.29636,393.59018 C 544.02798,393.59018 546.6849,393.37002 549.23386,392.96518 L 558.29636,407.59018 L 555.79636,391.43393 C 567.59838,387.7403 575.79636,379.68602 575.79636,370.34018 C 575.79636,361.84693 569.04443,354.40008 558.95261,350.34018 L 560.26511,346.52768 C 562.27565,346.89645 564.36464,347.09018 566.51511,347.09018 C 581.80734,347.09018 594.20263,337.23418 594.20261,325.09018 C 594.20261,312.94618 581.80735,303.09018 566.51511,303.09018 C 564.89077,303.09018 563.28176,303.18935 561.73386,303.40268 L 560.48386,299.68393 C 566.88129,297.34967 571.29636,292.35961 571.29636,286.59018 C 571.29636,278.58618 562.78436,272.09018 552.29636,272.09018 C 551.92764,272.09018 551.56616,272.07434 551.20261,272.09018 C 551.12466,272.09358 551.06156,272.08606 550.98386,272.09018 C 550.90677,272.09426 550.84195,272.08539 550.76511,272.09018 z "
         style="opacity:1;fill:#ffffff;fill-opacity:1;fill-rule:nonzero;stroke:#333333;stroke-width:1;stroke-linejoin:round;stroke-miterlimit:4;stroke-dasharray:none;stroke-dashoffset:0;stroke-opacity:1"
         inkscape:export-filename="/home/mx/Desktop/comica-bubbles-0014.png"
         inkscape:export-xdpi="190"
         inkscape:export-ydpi="190" />
      <text
         sodipodi:linespacing="100%"
         id="text2513"
         y="284.09018"
         x="539.06403"
         style="font-size:8px;font-style:normal;font-variant:normal;font-weight:normal;font-stretch:normal;text-align:start;line-height:100%;writing-mode:lr-tb;text-anchor:start;fill:#000000;fill-opacity:1;stroke:none;stroke-width:1px;stroke-linecap:butt;stroke-linejoin:miter;stroke-opacity:1;font-family:Mufferaw"
         xml:space="preserve"
         inkscape:export-filename="/home/mx/Desktop/comica-bubbles-0014.png"
         inkscape:export-xdpi="190"
         inkscape:export-ydpi="190"><tspan
           y="284.09018"
           x="539.06403"
           id="tspan2515"
           sodipodi:role="line">And</tspan><tspan
           id="tspan2517"
           y="292.09018"
           x="539.06403"
           sodipodi:role="line">This is ...</tspan></text>
      <text
         sodipodi:linespacing="100%"
         id="text2519"
         y="314.8208"
         x="542.78619"
         style="font-size:8px;font-style:normal;font-variant:normal;font-weight:normal;font-stretch:normal;text-align:start;line-height:100%;writing-mode:lr-tb;text-anchor:start;fill:#000000;fill-opacity:1;stroke:none;stroke-width:1px;stroke-linecap:butt;stroke-linejoin:miter;stroke-opacity:1;font-family:Mufferaw"
         xml:space="preserve"
         inkscape:export-filename="/home/mx/Desktop/comica-bubbles-0014.png"
         inkscape:export-xdpi="190"
         inkscape:export-ydpi="190"><tspan
           id="tspan2523"
           y="314.8208"
           x="542.78619"
           sodipodi:role="line">     A multi-</tspan><tspan
           id="tspan2527"
           y="322.8208"
           x="542.78619"
           sodipodi:role="line">Multi-part</tspan><tspan
           id="tspan2529"
           y="330.8208"
           x="542.78619"
           sodipodi:role="line">Bubble thing.</tspan><tspan
           id="tspan2531"
           y="338.8208"
           x="542.78619"
           sodipodi:role="line">     It also ...</tspan></text>
      <text
         sodipodi:linespacing="100%"
         id="text2533"
         y="359.69818"
         x="514.29639"
         style="font-size:8px;font-style:normal;font-variant:normal;font-weight:normal;font-stretch:normal;text-align:start;line-height:100%;writing-mode:lr-tb;text-anchor:start;fill:#000000;fill-opacity:1;stroke:none;stroke-width:1px;stroke-linecap:butt;stroke-linejoin:miter;stroke-opacity:1;font-family:Mufferaw"
         xml:space="preserve"
         inkscape:export-filename="/home/mx/Desktop/comica-bubbles-0014.png"
         inkscape:export-xdpi="190"
         inkscape:export-ydpi="190"><tspan
           id="tspan2541"
           y="359.69818"
           x="514.29639"
           sodipodi:role="line">     is spaced</tspan><tspan
           id="tspan2554"
           y="367.69818"
           x="514.29639"
           sodipodi:role="line">  a bit between</tspan><tspan
           id="tspan2558"
           y="375.69818"
           x="514.29639"
           sodipodi:role="line">each bubble</tspan><tspan
           id="tspan2560"
           y="383.69818"
           x="514.29639"
           sodipodi:role="line">  segment ....</tspan></text>
    </g>
    <path
       style="opacity:1;fill:#ffffff;fill-opacity:1;fill-rule:nonzero;stroke:#333333;stroke-width:0.99999988;stroke-linejoin:round;stroke-miterlimit:4;stroke-dasharray:none;stroke-dashoffset:0;stroke-opacity:1"
       d="M 125.21539,196.3675 L 15.371631,196.3675 L 15.371631,224.14875 C 15.371631,226.0878 16.932581,227.64875 18.871631,227.64875 L 121.71539,227.64875 C 123.65444,227.64875 125.21538,226.0878 125.21539,224.14875 L 125.21539,196.3675 z "
       id="path2820"
       inkscape:export-filename="/home/mx/Desktop/comica-bubbles-0014.png"
       inkscape:export-xdpi="190"
       inkscape:export-ydpi="190" />
    <path
       style="opacity:1;fill:#ffffff;fill-opacity:1;fill-rule:nonzero;stroke:#333333;stroke-width:0.99999988;stroke-linejoin:round;stroke-miterlimit:4;stroke-dasharray:none;stroke-dashoffset:0;stroke-opacity:1"
       d="M 63.496631,113.055 C 64.593871,113.6344 65.592391,114.29831 66.527881,115.02375 C 67.481351,115.76313 68.364161,116.59192 69.121631,117.46125 C 69.879101,118.33058 70.525911,119.23393 71.059131,120.21125 C 71.592351,121.18857 71.997151,122.21039 72.277881,123.27375 C 72.558611,124.33711 72.715381,125.4588 72.715381,126.58625 C 72.715381,127.7137 72.558611,128.80414 72.277881,129.8675 C 71.997151,130.93086 71.592351,131.95268 71.059131,132.93 C 70.525911,133.90732 69.879101,134.84192 69.121631,135.71125 C 68.364161,136.58058 67.481351,137.37812 66.527881,138.1175 C 65.574411,138.85688 64.555361,139.53003 63.434131,140.1175 C 62.312901,140.70497 61.101131,141.23515 59.840381,141.64875 C 58.579631,142.06235 57.274911,142.36847 55.902881,142.58625 C 54.530851,142.80403 53.107941,142.93 51.652881,142.93 C 50.015951,142.93 48.402031,142.76638 46.871631,142.4925 L 45.871631,145.33625 C 47.792101,146.09009 49.559531,147.01388 51.121631,148.055 C 52.683731,149.09612 54.061571,150.24967 55.184131,151.52375 C 56.306691,152.79783 57.176021,154.16479 57.777881,155.6175 C 58.379741,157.07021 58.715381,158.60297 58.715381,160.18 C 58.715381,161.04767 58.622311,161.90926 58.434131,162.7425 C 58.245951,163.57574 57.953081,164.3901 57.590381,165.18 C 56.864981,166.75981 55.806901,168.2332 54.465381,169.58625 C 53.123861,170.9393 51.501241,172.15619 49.652881,173.21125 C 47.804521,174.26631 45.711311,175.18167 43.465381,175.8675 L 45.371631,187.8675 L 38.496631,176.9925 C 36.556361,177.29318 34.513441,177.46126 32.434131,177.46125 C 30.622091,177.46125 28.861921,177.34756 27.152881,177.1175 C 25.443841,176.88744 23.786141,176.52321 22.215381,176.08625 C 20.644621,175.64929 19.175071,175.1132 17.777881,174.4925 C 16.918481,174.11071 16.154581,173.65548 15.371631,173.21125 L 15.371631,196.3675 L 125.21539,196.3675 L 125.21539,116.555 C 125.21539,114.61595 123.65444,113.055 121.71539,113.055 L 63.496631,113.055 z "
       id="path2717"
       inkscape:export-filename="/home/mx/Desktop/comica-bubbles-0014.png"
       inkscape:export-xdpi="190"
       inkscape:export-ydpi="190" />
    <path
       style="opacity:1;fill:#ffffff;fill-opacity:1;fill-rule:nonzero;stroke:#333333;stroke-width:0.99999988;stroke-linejoin:round;stroke-miterlimit:4;stroke-dasharray:none;stroke-dashoffset:0;stroke-opacity:1"
       d="M 40.059131,113.055 L 18.871631,113.055 C 16.932581,113.055 15.371631,114.61595 15.371631,116.555 L 15.371631,147.18 C 16.156051,146.73472 16.916691,146.25008 17.777881,145.8675 C 19.175071,145.2468 20.644621,144.71071 22.215381,144.27375 C 23.786141,143.83679 25.443841,143.50381 27.152881,143.27375 C 28.861921,143.04369 30.622091,142.93 32.434131,142.93 C 34.104611,142.93 35.758671,143.0148 37.340381,143.21125 C 38.922091,143.4077 40.432781,143.71155 41.902881,144.08625 L 42.840381,141.43 C 41.025921,140.78395 39.333541,139.96025 37.840381,138.96125 C 36.347221,137.96225 35.049031,136.80725 33.965381,135.52375 C 32.881731,134.24025 32.020061,132.80454 31.434131,131.305 C 30.848201,129.80546 30.527881,128.23338 30.527881,126.58625 C 30.527881,125.70619 30.635931,124.83561 30.809131,123.9925 C 30.982331,123.14939 31.226231,122.31929 31.559131,121.52375 C 32.224931,119.93266 33.210461,118.45457 34.434131,117.1175 C 35.657801,115.78043 37.135531,114.58432 38.809131,113.58625 C 39.184951,113.36212 39.663951,113.25941 40.059131,113.055 z "
       id="path2715"
       inkscape:export-filename="/home/mx/Desktop/comica-bubbles-0014.png"
       inkscape:export-xdpi="190"
       inkscape:export-ydpi="190" />
    <path
       style="opacity:1;fill:#ffffff;fill-opacity:1;fill-rule:nonzero;stroke:#333333;stroke-width:0.99999988;stroke-linejoin:round;stroke-miterlimit:4;stroke-dasharray:none;stroke-dashoffset:0;stroke-opacity:1"
       d="M 40.059131,113.055 C 39.663951,113.25941 39.184951,113.36212 38.809131,113.58625 C 37.135531,114.58432 35.657801,115.78043 34.434131,117.1175 C 33.210461,118.45457 32.224931,119.93266 31.559131,121.52375 C 31.226231,122.31929 30.982331,123.14939 30.809131,123.9925 C 30.635931,124.83561 30.527881,125.70619 30.527881,126.58625 C 30.527881,128.23338 30.848201,129.80546 31.434131,131.305 C 32.020061,132.80454 32.881731,134.24025 33.965381,135.52375 C 35.049031,136.80725 36.347221,137.96225 37.840381,138.96125 C 39.333541,139.96025 41.025921,140.78395 42.840381,141.43 L 41.902881,144.08625 C 40.432781,143.71155 38.922091,143.4077 37.340381,143.21125 C 35.758671,143.0148 34.104611,142.93 32.434131,142.93 C 30.622091,142.93 28.861921,143.04369 27.152881,143.27375 C 25.443841,143.50381 23.786141,143.83679 22.215381,144.27375 C 20.644621,144.71071 19.175071,145.2468 17.777881,145.8675 C 16.916691,146.25008 16.156051,146.73472 15.371631,147.18 L 15.371631,173.21125 C 16.154581,173.65548 16.918481,174.11071 17.777881,174.4925 C 19.175071,175.1132 20.644621,175.64929 22.215381,176.08625 C 23.786141,176.52321 25.443841,176.88744 27.152881,177.1175 C 28.861921,177.34756 30.622091,177.46125 32.434131,177.46125 C 34.513441,177.46126 36.556361,177.29318 38.496631,176.9925 L 45.371631,187.8675 L 43.465381,175.8675 C 45.711311,175.18167 47.804521,174.26631 49.652881,173.21125 C 51.501241,172.15619 53.123861,170.9393 54.465381,169.58625 C 55.806901,168.2332 56.864981,166.75981 57.590381,165.18 C 57.953081,164.3901 58.245951,163.57574 58.434131,162.7425 C 58.622311,161.90926 58.715381,161.04767 58.715381,160.18 C 58.715381,158.60297 58.379741,157.07021 57.777881,155.6175 C 57.176021,154.16479 56.306691,152.79783 55.184131,151.52375 C 54.061571,150.24967 52.683731,149.09612 51.121631,148.055 C 49.559531,147.01388 47.792101,146.09009 45.871631,145.33625 L 46.871631,142.4925 C 48.402031,142.76638 50.015951,142.93 51.652881,142.93 C 53.107941,142.93 54.530851,142.80403 55.902881,142.58625 C 57.274911,142.36847 58.579631,142.06235 59.840381,141.64875 C 61.101131,141.23515 62.312901,140.70497 63.434131,140.1175 C 64.555361,139.53003 65.574411,138.85688 66.527881,138.1175 C 67.481351,137.37812 68.364161,136.58058 69.121631,135.71125 C 69.879101,134.84192 70.525911,133.90732 71.059131,132.93 C 71.592351,131.95268 71.997151,130.93086 72.277881,129.8675 C 72.558611,128.80414 72.715381,127.7137 72.715381,126.58625 C 72.715381,125.4588 72.558611,124.33711 72.277881,123.27375 C 71.997151,122.21039 71.592351,121.18857 71.059131,120.21125 C 70.525911,119.23393 69.879101,118.33058 69.121631,117.46125 C 68.364161,116.59192 67.481351,115.76313 66.527881,115.02375 C 65.592391,114.29831 64.593871,113.6344 63.496631,113.055 L 40.059131,113.055 z "
       id="rect2622"
       inkscape:export-filename="/home/mx/Desktop/comica-bubbles-0014.png"
       inkscape:export-xdpi="190"
       inkscape:export-ydpi="190" />
    <g
       id="g2721"
       transform="matrix(0.878951,0,0,0.895432,-473.6575,-115.2379)"
       inkscape:export-filename="/home/mx/Desktop/comica-bubbles-0014.png"
       inkscape:export-xdpi="190"
       inkscape:export-ydpi="190">
      <path
         id="path2723"
         d="M 645.89474,280.97344 C 643.12093,281.12656 640.68767,282.31186 639.03977,284.07963 C 638.34901,283.6066 637.47293,283.32407 636.51186,283.32407 C 635.26731,283.32407 634.14996,283.79495 633.41459,284.54136 C 632.48775,284.14801 631.4448,283.91172 630.34011,283.91172 C 627.1226,283.91172 624.42006,285.80001 623.64455,288.34013 C 623.12446,288.13334 622.55014,288.02532 621.9365,288.02532 C 619.76718,288.02532 617.99654,289.4538 617.92828,291.25743 C 615.37065,292.12614 613.55567,294.26457 613.55567,296.75621 C 613.55567,297.60706 613.76807,298.39667 614.1478,299.12782 C 612.17592,299.33802 610.6406,300.75605 610.6406,302.46488 C 610.6406,303.95648 611.81198,305.21759 613.41903,305.65501 C 612.12411,307.08398 611.36937,308.90043 611.36937,310.85997 C 611.36937,315.49406 615.69916,319.25506 621.02554,319.25506 C 621.86579,319.25506 622.68509,319.15807 623.46236,318.98221 C 624.4485,321.21988 626.98818,322.80198 629.95295,322.80199 C 631.03675,322.80199 632.06822,322.59383 632.98189,322.21433 C 633.66365,323.25328 634.99765,323.95631 636.51186,323.95631 C 637.35885,323.95631 638.1418,323.72379 638.78926,323.34767 C 640.03383,324.91977 642.13977,325.97113 644.5283,325.97113 C 646.40928,325.97113 648.10823,325.31149 649.35639,324.27112 C 650.03328,324.70868 650.89553,324.96372 651.81599,324.96372 C 654.01123,324.96372 655.79646,323.48133 655.82421,321.64766 C 656.79817,322.09428 657.92134,322.34025 659.10366,322.34025 C 661.9699,322.34025 664.42891,320.85124 665.48038,318.73037 C 665.89706,318.85339 666.35734,318.91926 666.82404,318.91926 C 669.03658,318.91926 670.83228,317.41486 670.83227,315.56122 C 670.83227,315.00224 670.64279,314.47192 670.35401,314.00813 C 673.67607,313.57444 676.22971,311.12993 676.22971,308.17354 C 676.22971,306.66986 675.56084,305.29225 674.47611,304.24884 C 675.57955,302.88398 676.22971,301.2369 676.22971,299.44265 C 676.22971,295.2792 672.73923,291.81209 668.16771,291.15249 C 668.19156,291.00444 668.21326,290.86525 668.21326,290.71175 C 668.21326,288.85811 666.41758,287.35371 664.20504,287.35371 C 663.68647,287.35371 663.17974,287.43417 662.72473,287.58458 C 661.77054,285.29484 659.19709,283.65987 656.18859,283.65987 C 655.39739,283.65987 654.64231,283.76576 653.93396,283.97469 C 652.16347,282.13365 649.50519,280.97344 646.53242,280.97344 C 646.32436,280.97344 646.09954,280.96214 645.89474,280.97344 z "
         style="fill:#ffffff;fill-opacity:1;fill-rule:nonzero;stroke:#333333;stroke-width:1.12720072;stroke-linejoin:round;stroke-miterlimit:4;stroke-dasharray:none;stroke-dashoffset:0;stroke-opacity:1" />
      <path
         transform="matrix(0.7255,0,0,0.573323,149.5421,171.4249)"
         d="M 677.55641 273.36218 A 5.2782154 4 0 1 1  666.99998,273.36218 A 5.2782154 4 0 1 1  677.55641 273.36218 z"
         sodipodi:ry="4"
         sodipodi:rx="5.2782154"
         sodipodi:cy="273.36218"
         sodipodi:cx="672.2782"
         id="path2725"
         style="fill:#ffffff;fill-opacity:1;fill-rule:nonzero;stroke:#333333;stroke-width:1.74776423;stroke-linejoin:round;stroke-miterlimit:4;stroke-dasharray:none;stroke-dashoffset:0;stroke-opacity:1"
         sodipodi:type="arc" />
      <path
         transform="matrix(0.428753,0,0,0.334996,337.9198,244.947)"
         d="M 677.55641 273.36218 A 5.2782154 4 0 1 1  666.99998,273.36218 A 5.2782154 4 0 1 1  677.55641 273.36218 z"
         sodipodi:ry="4"
         sodipodi:rx="5.2782154"
         sodipodi:cy="273.36218"
         sodipodi:cx="672.2782"
         id="path2727"
         style="fill:#ffffff;fill-opacity:1;fill-rule:nonzero;stroke:#333333;stroke-width:2.9742527;stroke-linejoin:round;stroke-miterlimit:4;stroke-dasharray:none;stroke-dashoffset:0;stroke-opacity:1"
         sodipodi:type="arc" />
      <path
         transform="matrix(0.488838,0,0,0.411305,303.2847,220.6768)"
         d="M 677.55641 273.36218 A 5.2782154 4 0 1 1  666.99998,273.36218 A 5.2782154 4 0 1 1  677.55641 273.36218 z"
         sodipodi:ry="4"
         sodipodi:rx="5.2782154"
         sodipodi:cy="273.36218"
         sodipodi:cx="672.2782"
         id="path2729"
         style="fill:#ffffff;fill-opacity:1;fill-rule:nonzero;stroke:#333333;stroke-width:2.51383495;stroke-linejoin:round;stroke-miterlimit:4;stroke-dasharray:none;stroke-dashoffset:0;stroke-opacity:1"
         sodipodi:type="arc" />
    </g>
    <text
       xml:space="preserve"
       style="font-size:7.09721708px;font-style:normal;font-variant:normal;font-weight:normal;font-stretch:normal;text-align:start;line-height:100%;writing-mode:lr-tb;text-anchor:start;fill:#000000;fill-opacity:1;stroke:none;stroke-width:1px;stroke-linecap:butt;stroke-linejoin:miter;stroke-opacity:1;font-family:Mufferaw"
       x="66.833221"
       y="148.99707"
       id="text2731"
       sodipodi:linespacing="100%"
       transform="scale(0.990754,1.009332)"
       inkscape:export-filename="/home/mx/Desktop/comica-bubbles-0014.png"
       inkscape:export-xdpi="190"
       inkscape:export-ydpi="190"><tspan
         sodipodi:role="line"
         x="66.833221"
         y="148.99707"
         id="tspan2753">     heh, like </tspan><tspan
         sodipodi:role="line"
         x="66.833221"
         y="156.09429"
         id="tspan2757">that would ever</tspan><tspan
         sodipodi:role="line"
         x="66.833221"
         y="163.1915"
         id="tspan2759">   happen, eh ...</tspan></text>
    <text
       xml:space="preserve"
       style="font-size:7.09721613px;font-style:normal;font-variant:normal;font-weight:normal;font-stretch:normal;text-align:start;line-height:100%;writing-mode:lr-tb;text-anchor:start;fill:#000000;fill-opacity:1;stroke:none;stroke-width:1px;stroke-linecap:butt;stroke-linejoin:miter;stroke-opacity:1;font-family:Mufferaw"
       x="38.571945"
       y="119.94129"
       id="text2761"
       sodipodi:linespacing="100%"
       transform="scale(0.990754,1.009332)"
       inkscape:export-filename="/home/mx/Desktop/comica-bubbles-0014.png"
       inkscape:export-xdpi="190"
       inkscape:export-ydpi="190"><tspan
         sodipodi:role="line"
         x="38.571945"
         y="119.94129"
         id="tspan2767"> AS I was</tspan><tspan
         sodipodi:role="line"
         x="38.571945"
         y="127.03851"
         id="tspan2774">saying,</tspan><tspan
         sodipodi:role="line"
         x="38.571945"
         y="134.13572"
         id="tspan2776">i think ...</tspan></text>
    <text
       xml:space="preserve"
       style="font-size:7.09721136px;font-style:normal;font-variant:normal;font-weight:normal;font-stretch:normal;text-align:start;line-height:100%;writing-mode:lr-tb;text-anchor:start;fill:#000000;fill-opacity:1;stroke:none;stroke-width:1px;stroke-linecap:butt;stroke-linejoin:miter;stroke-opacity:1;font-family:Mufferaw"
       x="17.671446"
       y="151.42786"
       id="text2780"
       sodipodi:linespacing="100%"
       transform="scale(0.990754,1.009332)"
       inkscape:export-filename="/home/mx/Desktop/comica-bubbles-0014.png"
       inkscape:export-xdpi="190"
       inkscape:export-ydpi="190"><tspan
         sodipodi:role="line"
         x="17.671446"
         y="151.42786"
         id="tspan2795">it can be</tspan><tspan
         sodipodi:role="line"
         x="17.671446"
         y="158.52507"
         id="tspan2802">done if you</tspan><tspan
         sodipodi:role="line"
         x="17.671446"
         y="165.62228"
         id="tspan2804">think about</tspan><tspan
         sodipodi:role="line"
         x="17.671446"
         y="172.71949"
         id="tspan2806">       it.</tspan></text>
    <text
       xml:space="preserve"
       style="font-size:7.09720945px;font-style:normal;font-variant:normal;font-weight:normal;font-stretch:normal;text-align:start;line-height:100%;writing-mode:lr-tb;text-anchor:start;fill:#000000;fill-opacity:1;stroke:none;stroke-width:1px;stroke-linecap:butt;stroke-linejoin:miter;stroke-opacity:1;font-family:Mufferaw"
       x="20.228512"
       y="203.81863"
       id="text2822"
       sodipodi:linespacing="100%"
       transform="scale(0.990754,1.009332)"
       inkscape:export-filename="/home/mx/Desktop/comica-bubbles-0014.png"
       inkscape:export-xdpi="190"
       inkscape:export-ydpi="190"><tspan
         sodipodi:role="line"
         x="20.228512"
         y="203.81863"
         id="tspan2830">And the narator said that he</tspan><tspan
         sodipodi:role="line"
         x="20.228512"
         y="210.91584"
         id="tspan2841">thought this strip was a pile</tspan><tspan
         sodipodi:role="line"
         x="20.228512"
         y="218.01305"
         id="tspan2843">of steaming horse shit.  But hey.</tspan></text>
  </g>
</svg>
